<?xml version="1.0" encoding="UTF-8" standalone="no"?>
<svg
   width="210mm"
   height="210mm"
   viewBox="-10 -10 230 230"
   version="1.1"
   id="svgAccessibility"
   sodipodi:docname="gemini-svg_04_corrige_avec_inskape.svg"
   inkscape:version="1.2.2 (b0a8486541, 2022-12-01)"
   xmlns:inkscape="http://www.inkscape.org/namespaces/inkscape"
   xmlns:sodipodi="http://sodipodi.sourceforge.net/DTD/sodipodi-0.dtd"
   xmlns="http://www.w3.org/2000/svg"
   xmlns:svg="http://www.w3.org/2000/svg">
  <defs
     id="defs42" />
  <sodipodi:namedview
     id="namedview40"
     pagecolor="#ffffff"
     bordercolor="#000000"
     borderopacity="0.25"
     inkscape:showpageshadow="2"
     inkscape:pageopacity="0.0"
     inkscape:pagecheckerboard="0"
     inkscape:deskcolor="#d1d1d1"
     inkscape:document-units="mm"
     showgrid="false"
     inkscape:zoom="0.59468254"
     inkscape:cx="370.78607"
     inkscape:cy="336.31389"
     inkscape:window-width="1280"
     inkscape:window-height="1350"
     inkscape:window-x="1280"
     inkscape:window-y="32"
     inkscape:window-maximized="1"
     inkscape:current-layer="svgAccessibility" />
  <style
     id="style2">
    .icon-path { fill: #000000; fill-rule: evenodd; stroke: none; }
  </style>
  <g
     id="icon-container">
    <!-- 1. CADRE EXTÉRIEUR ET INTÉRIEUR -->
    <path
       class="icon-path"
       d="       M 30,5        A 25,25 0 0 0 5,30        L 5,180        A 25,25 0 0 0 30,205        L 180,205        A 25,25 0 0 0 205,180        L 205,30        A 25,25 0 0 0 180,5        Z        M 32,17        L 178,17        A 15,15 0 0 1 193,32        L 193,178        A 15,15 0 0 1 178,193        L 32,193        A 15,15 0 0 1 17,178        L 17,32        A 15,15 0 0 1 32,17        Z"
       id="path4" />
    <!-- 2. L'ŒIL (CONTOURS ET BULBE) -->
    <!-- Partie Gauche de l'œil (Noir plein, avec le demi-iris gauche
         découpé en trou transparent via evenodd) -->
    <path
       class="icon-path"
       d="M 105,40 C 75,40 48,58 30,90 C 48,122 75,140 105,140 Z M 105,65 A 25,25 0 0 0 105,115 Z"
       id="path6" />
    <!-- Partie Droite de l'œil (Contour noir, fond blanc) -->
    <path
       class="icon-path"
       d="       M 105,40        C 135,40 162,58 180,90        C 162,122 135,140 105,140        Z       M 105,48       C 131,48 154,64 170,90       C 154,116 131,132 105,132       Z"
       id="path8" />
    <!-- 3. IRIS AND PUPIL — split eye. The "light" halves are transparent
         (the button shows through), never opaque white. Left (dark) side:
         the iris-left is the transparent hole cut into path6, with a black
         pupil-left dot inside it. Right (light) side: a black iris-right
         holding a transparent pupil-right hole. -->
    <path
       class="icon-path"
       d="M 105,65 A 25,25 0 0 1 105,115 Z M 105,78 A 12,12 0 0 1 105,102 Z"
       id="path12" />
    <path
       class="icon-path"
       d="M 105,78 A 12,12 0 0 0 105,102 Z"
       id="path14" />
    <!-- 4. LA JAUGE INFÉRIEURE -->
    <!-- Partie Gauche de la jauge (Plein noir) -->
    <path
       class="icon-path"
       d="       M 39,153        L 85,153        L 85,167        L 39,167        A 7,7 0 0 1 32,160        A 7,7 0 0 1 39,153        Z"
       id="path18" />
    <!-- Partie Droite de la jauge (Contour vide / Intérieur blanc) -->
    <path
       class="icon-path"
       d="       M 85,153        L 152,153        L 152,167        L 85,167        Z        M 85,155        L 85,165        L 152,165        L 152,155        Z"
       id="path20" />
    <!-- Le bouton curseur rond (Tout à droite) -->
    <path
       class="icon-path"
       d="m 163.94166,146 a 14,14 0 1 1 0,28 14,14 0 0 1 0,-28 z m 0,6 a 8,8 0 1 0 0,16 8,8 0 0 0 0,-16 z"
       id="path22" />
    <!-- 5. LES TRAITS DE JAUGE (EXTÉRIEURS UNIQUEMENT) -->
    <!-- Graduation 1 (Sur fond noir, reste visible d'un seul bloc) -->
    <rect
       class="icon-path"
       x="69"
       y="143"
       width="6"
       height="34"
       rx="2"
       id="rect24" />
    <!-- Graduation 2, 3 et 4 : Divisées en blocs Haut/Bas pour ne pas traverser le blanc -->
    <!-- Graduation 2 (X=89) -->
    <rect
       class="icon-path"
       x="89"
       y="143"
       width="6"
       height="12"
       rx="2"
       id="rect26" />
    <rect
       class="icon-path"
       x="89"
       y="165"
       width="6"
       height="12"
       rx="2"
       id="rect28" />
    <!-- Graduation 3 (X=109) -->
    <rect
       class="icon-path"
       x="109"
       y="143"
       width="6"
       height="12"
       rx="2"
       id="rect30" />
    <rect
       class="icon-path"
       x="109"
       y="165"
       width="6"
       height="12"
       rx="2"
       id="rect32" />
    <!-- Graduation 4 (X=129) -->
    <rect
       class="icon-path"
       x="129"
       y="143"
       width="6"
       height="12"
       rx="2"
       id="rect34" />
    <rect
       class="icon-path"
       x="129"
       y="165"
       width="6"
       height="12"
       rx="2"
       id="rect36" />
  </g>
</svg>
